<svg id="Layer_1" data-name="Layer 1" xmlns="http://www.w3.org/2000/svg" xmlns:xlink="http://www.w3.org/1999/xlink" viewBox="0 0 549.5 56.37"><defs><style>.cls-1,.cls-10,.cls-3,.cls-4,.cls-8{fill:none;}.cls-2{clip-path:url(#clip-path);}.cls-3{stroke:#bec0c2;}.cls-10,.cls-3,.cls-4,.cls-8{stroke-miterlimit:10;}.cls-4{stroke:#bcbec0;}.cls-5{opacity:0.7;}.cls-6{clip-path:url(#clip-path-3);}.cls-7{fill:#fff;}.cls-10,.cls-8{stroke:#231f20;}.cls-8{stroke-width:2px;}.cls-9{font-size:12px;font-family:Menlo-Regular, Menlo;}.cls-11,.cls-9{fill:#231f20;}.cls-12{clip-path:url(#clip-path-5);}.cls-13{clip-path:url(#clip-path-7);}.cls-14{clip-path:url(#clip-path-8);}.cls-15{clip-path:url(#clip-path-9);}.cls-16{clip-path:url(#clip-path-10);}.cls-17{clip-path:url(#clip-path-11);}.cls-18{clip-path:url(#clip-path-12);}.cls-19{clip-path:url(#clip-path-15);}</style><clipPath id="clip-path" transform="translate(0 0)"><rect class="cls-1" width="549.5" height="56.37"/></clipPath><clipPath id="clip-path-3" transform="translate(0 0)"><rect class="cls-1" x="113" y="37.37" width="36" height="18"/></clipPath><clipPath id="clip-path-5" transform="translate(0 0)"><rect class="cls-1" x="158" y="37.37" width="72" height="18"/></clipPath><clipPath id="clip-path-7" transform="translate(0 0)"><rect class="cls-1" x="266" y="37.37" width="36" height="18"/></clipPath><clipPath id="clip-path-8" transform="translate(0 0)"><rect class="cls-1" x="302" y="37.37" width="36" height="18"/></clipPath><clipPath id="clip-path-9" transform="translate(0 0)"><rect class="cls-1" x="338" y="37.37" width="36" height="18"/></clipPath><clipPath id="clip-path-10" transform="translate(0 0)"><rect class="cls-1" x="374" y="37.37" width="36" height="18"/></clipPath><clipPath id="clip-path-11" transform="translate(0 0)"><rect class="cls-1" x="410" y="37.37" width="36" height="18"/></clipPath><clipPath id="clip-path-12" transform="translate(0 0)"><rect class="cls-1" x="5" y="37.37" width="72" height="18"/></clipPath><clipPath id="clip-path-15" transform="translate(0 0)"><rect class="cls-1" x="473" y="37.37" width="72" height="18"/></clipPath></defs><title>cours01-pointeurs-7</title><g class="cls-2"><g class="cls-2"><line class="cls-3" x1="545" y1="37.37" x2="545" y2="55.37"/><line class="cls-3" x1="535.91" y1="37.37" x2="535.91" y2="55.37"/><line class="cls-3" x1="527.02" y1="37.37" x2="527.02" y2="55.37"/><line class="cls-3" x1="517.93" y1="37.37" x2="517.93" y2="55.37"/><line class="cls-3" x1="509.04" y1="37.37" x2="509.04" y2="55.37"/><line class="cls-3" x1="499.95" y1="37.37" x2="499.95" y2="55.37"/><line class="cls-3" x1="491.05" y1="37.37" x2="491.05" y2="55.37"/><line class="cls-3" x1="481.96" y1="37.37" x2="481.96" y2="55.37"/><line class="cls-3" x1="473.07" y1="37.37" x2="473.07" y2="55.37"/><line class="cls-3" x1="463.98" y1="37.37" x2="463.98" y2="55.37"/><line class="cls-3" x1="455.09" y1="37.37" x2="455.09" y2="55.37"/><line class="cls-3" x1="446" y1="37.37" x2="446" y2="55.37"/><line class="cls-3" x1="436.91" y1="37.37" x2="436.91" y2="55.37"/><line class="cls-3" x1="428.02" y1="37.37" x2="428.02" y2="55.37"/><line class="cls-3" x1="418.93" y1="37.37" x2="418.93" y2="55.37"/><line class="cls-3" x1="410.04" y1="37.37" x2="410.04" y2="55.37"/><line class="cls-3" x1="400.95" y1="37.37" x2="400.95" y2="55.37"/><line class="cls-3" x1="392.05" y1="37.37" x2="392.05" y2="55.37"/><line class="cls-3" x1="382.96" y1="37.37" x2="382.96" y2="55.37"/><line class="cls-3" x1="374.07" y1="37.37" x2="374.07" y2="55.37"/><line class="cls-3" x1="364.98" y1="37.37" x2="364.98" y2="55.37"/><line class="cls-3" x1="356.09" y1="37.37" x2="356.09" y2="55.37"/><line class="cls-3" x1="347" y1="37.37" x2="347" y2="55.37"/><line class="cls-3" x1="337.91" y1="37.37" x2="337.91" y2="55.37"/><line class="cls-3" x1="329.02" y1="37.37" x2="329.02" y2="55.37"/><line class="cls-3" x1="319.93" y1="37.37" x2="319.93" y2="55.37"/><line class="cls-3" x1="311.04" y1="37.37" x2="311.04" y2="55.37"/><line class="cls-3" x1="301.95" y1="37.37" x2="301.95" y2="55.37"/><line class="cls-3" x1="293.05" y1="37.37" x2="293.05" y2="55.37"/><line class="cls-3" x1="283.96" y1="37.37" x2="283.96" y2="55.37"/><line class="cls-3" x1="275.07" y1="37.37" x2="275.07" y2="55.37"/><line class="cls-3" x1="265.98" y1="37.37" x2="265.98" y2="55.37"/><line class="cls-3" x1="257.09" y1="37.37" x2="257.09" y2="55.37"/><line class="cls-3" x1="248" y1="37.37" x2="248" y2="55.37"/><line class="cls-3" x1="238.91" y1="37.37" x2="238.91" y2="55.37"/><line class="cls-3" x1="230.02" y1="37.37" x2="230.02" y2="55.37"/><line class="cls-3" x1="220.93" y1="37.37" x2="220.93" y2="55.37"/><line class="cls-3" x1="212.04" y1="37.37" x2="212.04" y2="55.37"/><line class="cls-3" x1="202.95" y1="37.37" x2="202.95" y2="55.37"/><line class="cls-3" x1="194.05" y1="37.37" x2="194.05" y2="55.37"/><line class="cls-3" x1="184.96" y1="37.37" x2="184.96" y2="55.37"/><line class="cls-3" x1="176.07" y1="37.37" x2="176.07" y2="55.37"/><line class="cls-3" x1="166.98" y1="37.37" x2="166.98" y2="55.37"/><line class="cls-3" x1="158.09" y1="37.37" x2="158.09" y2="55.37"/><line class="cls-3" x1="149" y1="37.37" x2="149" y2="55.37"/><line class="cls-3" x1="139.91" y1="37.37" x2="139.91" y2="55.37"/><line class="cls-3" x1="131.02" y1="37.37" x2="131.02" y2="55.37"/><line class="cls-3" x1="121.93" y1="37.37" x2="121.93" y2="55.37"/><line class="cls-3" x1="113.04" y1="37.37" x2="113.04" y2="55.37"/><line class="cls-3" x1="103.95" y1="37.37" x2="103.95" y2="55.37"/><line class="cls-3" x1="95.05" y1="37.37" x2="95.05" y2="55.37"/><line class="cls-3" x1="85.96" y1="37.37" x2="85.96" y2="55.37"/><line class="cls-3" x1="77.07" y1="37.37" x2="77.07" y2="55.37"/><line class="cls-3" x1="67.98" y1="37.37" x2="67.98" y2="55.37"/><line class="cls-3" x1="59.09" y1="37.37" x2="59.09" y2="55.37"/><line class="cls-3" x1="50" y1="37.37" x2="50" y2="55.37"/><line class="cls-3" x1="40.91" y1="37.37" x2="40.91" y2="55.37"/><line class="cls-3" x1="32.02" y1="37.37" x2="32.02" y2="55.37"/><line class="cls-3" x1="22.93" y1="37.37" x2="22.93" y2="55.37"/><line class="cls-3" x1="14.04" y1="37.37" x2="14.04" y2="55.37"/><line class="cls-3" x1="4.95" y1="37.37" x2="4.95" y2="55.37"/><line class="cls-4" y1="37.37" x2="549.5" y2="37.37"/><line class="cls-4" y1="55.37" x2="549.5" y2="55.37"/><g class="cls-5"><g class="cls-6"><rect class="cls-7" x="113" y="37.37" width="36" height="18"/></g></g><rect class="cls-8" x="113" y="37.37" width="36" height="18"/><text class="cls-9" transform="translate(113 10.37)">1234</text></g><line class="cls-10" x1="117.5" y1="14.87" x2="117.5" y2="28.52"/><polygon class="cls-11" points="114.59 26.53 117.5 37.37 120.41 26.53 114.59 26.53"/><text class="cls-9" transform="translate(117.5 50.87)">3.14</text><g class="cls-2"><g class="cls-5"><g class="cls-12"><rect class="cls-7" x="158" y="37.37" width="72" height="18"/></g></g><rect class="cls-8" x="158" y="37.37" width="72" height="18"/><text class="cls-9" transform="translate(158 10.37)">1842</text></g><line class="cls-10" x1="162.5" y1="14.87" x2="162.5" y2="28.52"/><polygon class="cls-11" points="159.59 26.53 162.5 37.37 165.41 26.53 159.59 26.53"/><text class="cls-9" transform="translate(198.5 50.87)">1234</text><g class="cls-2"><g class="cls-5"><g class="cls-13"><rect class="cls-7" x="266" y="37.37" width="36" height="18"/></g></g><rect class="cls-8" x="266" y="37.37" width="36" height="18"/><g class="cls-5"><g class="cls-14"><rect class="cls-7" x="302" y="37.37" width="36" height="18"/></g></g><rect class="cls-8" x="302" y="37.37" width="36" height="18"/><g class="cls-5"><g class="cls-15"><rect class="cls-7" x="338" y="37.37" width="36" height="18"/></g></g><rect class="cls-8" x="338" y="37.37" width="36" height="18"/><g class="cls-5"><g class="cls-16"><rect class="cls-7" x="374" y="37.37" width="36" height="18"/></g></g><rect class="cls-8" x="374" y="37.37" width="36" height="18"/><g class="cls-5"><g class="cls-17"><rect class="cls-7" x="410" y="37.37" width="36" height="18"/></g></g><rect class="cls-8" x="410" y="37.37" width="36" height="18"/><g class="cls-5"><g class="cls-18"><rect class="cls-7" x="5" y="37.37" width="72" height="18"/></g></g><rect class="cls-8" x="5" y="37.37" width="72" height="18"/><text class="cls-9" transform="translate(5 10.37)">834</text></g><line class="cls-10" x1="9.5" y1="14.87" x2="9.5" y2="28.52"/><polygon class="cls-11" points="6.59 26.53 9.5 37.37 12.41 26.53 6.59 26.53"/><text class="cls-9" transform="translate(45.5 50.87)">2145</text><g class="cls-2"><text class="cls-9" transform="translate(266 10.37)">2145</text></g><line class="cls-10" x1="270.5" y1="14.87" x2="270.5" y2="28.52"/><polygon class="cls-11" points="267.6 26.53 270.5 37.37 273.41 26.53 267.6 26.53"/><g class="cls-2"><g class="cls-5"><g class="cls-19"><rect class="cls-7" x="473" y="37.37" width="72" height="18"/></g></g><rect class="cls-8" x="473" y="37.37" width="72" height="18"/><text class="cls-9" transform="translate(473 10.37)">2936</text></g><line class="cls-10" x1="477.5" y1="14.87" x2="477.5" y2="28.52"/><polygon class="cls-11" points="474.6 26.53 477.5 37.37 480.41 26.53 474.6 26.53"/><text class="cls-9" transform="translate(513.5 50.87)">2145</text><text class="cls-9" transform="translate(351.5 50.87)">10</text><text class="cls-9" transform="translate(387.5 50.87)">20</text></g></svg>