<svg xmlns="http://www.w3.org/2000/svg" viewBox="0 0 793 151.3"><defs><style>.cls-1{fill:#999b9e;}.cls-2{fill:#73acc6;}.cls-3,.cls-4{fill:none;stroke:#231f20;stroke-miterlimit:10;}.cls-4{stroke-dasharray:5.88 3.92;}.cls-5,.cls-6{fill:#231f20;}.cls-6{font-size:16px;font-family:Monaco, Monaco;}</style></defs><title>cours01-tableaux</title><g id="grid"><rect class="cls-1" x="5" y="77.06" width="27" height="27"/><rect class="cls-1" x="41" y="77.06" width="27" height="27"/><rect class="cls-1" x="77" y="77.06" width="27" height="27"/><rect class="cls-1" x="113" y="77.06" width="27" height="27"/><rect class="cls-1" x="725" y="77.06" width="27" height="27"/><rect class="cls-1" x="761" y="77.06" width="27" height="27"/><rect class="cls-2" x="149" y="77.06" width="27" height="27"/><rect class="cls-2" x="185" y="77.06" width="27" height="27"/><rect class="cls-2" x="221" y="77.06" width="27" height="27"/><rect class="cls-2" x="257" y="77.06" width="27" height="27"/><rect class="cls-2" x="293" y="77.06" width="27" height="27"/><rect class="cls-2" x="329" y="77.06" width="27" height="27"/><rect class="cls-2" x="365" y="77.06" width="27" height="27"/><rect class="cls-2" x="401" y="77.06" width="27" height="27"/><rect class="cls-2" x="437" y="77.06" width="27" height="27"/><rect class="cls-2" x="473" y="77.06" width="27" height="27"/><rect class="cls-2" x="509" y="77.06" width="27" height="27"/><rect class="cls-2" x="545" y="77.06" width="27" height="27"/><rect class="cls-2" x="581" y="77.06" width="27" height="27"/><rect class="cls-2" x="617" y="77.06" width="27" height="27"/><rect class="cls-2" x="653" y="77.06" width="27" height="27"/><rect class="cls-2" x="689" y="77.06" width="27" height="27"/><rect class="cls-3" x="0.5" y="72.56" width="792" height="36"/><line class="cls-3" x1="756.54" y1="72.56" x2="756.54" y2="108.56"/><line class="cls-3" x1="720.57" y1="72.56" x2="720.57" y2="108.56"/><line class="cls-3" x1="684.41" y1="72.56" x2="684.41" y2="108.56"/><line class="cls-3" x1="648.45" y1="72.56" x2="648.45" y2="108.56"/><line class="cls-3" x1="612.48" y1="72.56" x2="612.48" y2="108.56"/><line class="cls-3" x1="576.52" y1="72.56" x2="576.52" y2="108.56"/><line class="cls-3" x1="540.55" y1="72.56" x2="540.55" y2="108.56"/><line class="cls-3" x1="504.59" y1="72.56" x2="504.59" y2="108.56"/><line class="cls-3" x1="468.43" y1="72.56" x2="468.43" y2="108.56"/><line class="cls-3" x1="432.46" y1="72.56" x2="432.46" y2="108.56"/><line class="cls-3" x1="396.5" y1="72.56" x2="396.5" y2="108.56"/><line class="cls-3" x1="360.54" y1="72.56" x2="360.54" y2="108.56"/><line class="cls-3" x1="324.57" y1="72.56" x2="324.57" y2="108.56"/><line class="cls-3" x1="288.41" y1="72.56" x2="288.41" y2="108.56"/><line class="cls-3" x1="252.45" y1="72.56" x2="252.45" y2="108.56"/><line class="cls-3" x1="216.48" y1="72.56" x2="216.48" y2="108.56"/><line class="cls-3" x1="180.52" y1="72.56" x2="180.52" y2="108.56"/><line class="cls-3" x1="144.55" y1="72.56" x2="144.55" y2="108.56"/><line class="cls-3" x1="108.59" y1="72.56" x2="108.59" y2="108.56"/><line class="cls-3" x1="72.43" y1="72.56" x2="72.43" y2="108.56"/><line class="cls-3" x1="36.46" y1="72.56" x2="36.46" y2="108.56"/></g><g id="marks"><polyline class="cls-3" points="149 113.06 149 122.06 284 122.06 284 113.06"/><polyline class="cls-3" points="293 113.06 293 122.06 428 122.06 428 113.06"/><polyline class="cls-3" points="437 113.06 437 122.06 572 122.06 572 113.06"/><polyline class="cls-3" points="581 113.06 581 122.06 716 122.06 716 113.06"/><line class="cls-3" x1="288.5" y1="36.56" x2="288.5" y2="39.56"/><line class="cls-4" x1="288.5" y1="43.49" x2="288.5" y2="139.6"/><line class="cls-3" x1="288.5" y1="141.56" x2="288.5" y2="144.56"/><line class="cls-3" x1="432.5" y1="36.56" x2="432.5" y2="39.56"/><line class="cls-4" x1="432.5" y1="43.49" x2="432.5" y2="139.6"/><line class="cls-3" x1="432.5" y1="141.56" x2="432.5" y2="144.56"/><line class="cls-3" x1="576.5" y1="36.56" x2="576.5" y2="39.56"/><line class="cls-4" x1="576.5" y1="43.49" x2="576.5" y2="139.6"/><line class="cls-3" x1="576.5" y1="141.56" x2="576.5" y2="144.56"/><line class="cls-3" x1="720.5" y1="36.56" x2="720.5" y2="39.56"/><line class="cls-4" x1="720.5" y1="43.49" x2="720.5" y2="139.6"/><line class="cls-3" x1="720.5" y1="141.56" x2="720.5" y2="144.56"/><line class="cls-3" x1="144.5" y1="36.56" x2="144.5" y2="39.56"/><line class="cls-4" x1="144.5" y1="43.49" x2="144.5" y2="139.6"/><line class="cls-3" x1="144.5" y1="141.56" x2="144.5" y2="144.56"/><line class="cls-3" x1="162.5" y1="36.56" x2="162.5" y2="59.2"/><polygon class="cls-5" points="159.59 57.22 162.5 68.06 165.41 57.22 159.59 57.22"/><line class="cls-3" x1="306.5" y1="36.56" x2="306.5" y2="59.2"/><polygon class="cls-5" points="303.6 57.22 306.5 68.06 309.4 57.22 303.6 57.22"/><line class="cls-3" x1="450.5" y1="36.56" x2="450.5" y2="59.2"/><polygon class="cls-5" points="447.6 57.22 450.5 68.06 453.4 57.22 447.6 57.22"/><line class="cls-3" x1="594.5" y1="36.56" x2="594.5" y2="59.2"/><polygon class="cls-5" points="591.6 57.22 594.5 68.06 597.4 57.22 591.6 57.22"/><line class="cls-3" x1="738.5" y1="36.56" x2="738.5" y2="59.2"/><polygon class="cls-5" points="735.6 57.22 738.5 68.06 741.4 57.22 735.6 57.22"/></g><g id="labels"><text class="cls-6" transform="translate(135.5 14.06)">tab =</text><text class="cls-6" transform="translate(279.5 14.06)">tab+1 =</text><text class="cls-6" transform="translate(423.5 14.06)">tab+2 =</text><text class="cls-6" transform="translate(567.5 14.06)">tab+3 =</text><text class="cls-6" transform="translate(711.5 14.06)">tab+4 =</text><text class="cls-6" transform="translate(189.5 144.56)">tab[0]</text><text class="cls-6" transform="translate(333.5 144.56)">tab[1]</text><text class="cls-6" transform="translate(477.5 144.56)">tab[2]</text><text class="cls-6" transform="translate(621.5 144.56)">tab[3]</text><text class="cls-6" transform="translate(149 32.06)">1032</text><text class="cls-6" transform="translate(293 32.06)">1036</text><text class="cls-6" transform="translate(437 32.06)">1040</text><text class="cls-6" transform="translate(581 32.06)">1044</text><text class="cls-6" transform="translate(725 32.06)">1048</text></g></svg>