<svg xmlns="http://www.w3.org/2000/svg" xmlns:xlink="http://www.w3.org/1999/xlink" viewBox="0 0 376 620"><defs><style>.cls-1,.cls-15,.cls-17,.cls-18,.cls-2,.cls-3,.cls-4,.cls-5,.cls-6,.cls-7,.cls-8{stroke:#231f20;stroke-miterlimit:10;}.cls-1{stroke-width:0.9px;fill:url(#linear-gradient);}.cls-2{stroke-width:0.97px;fill:url(#linear-gradient-2);}.cls-3{stroke-width:1.04px;fill:url(#linear-gradient-3);}.cls-4{fill:url(#linear-gradient-4);}.cls-5{fill:url(#linear-gradient-5);}.cls-6{fill:url(#linear-gradient-6);}.cls-7{fill:url(#linear-gradient-7);}.cls-15,.cls-17,.cls-8{stroke-width:1.18px;}.cls-8{fill:url(#linear-gradient-8);}.cls-21,.cls-9{font-size:16px;}.cls-19,.cls-20,.cls-21,.cls-9{fill:#231f20;}.cls-20,.cls-9{font-family:GillSans, Gill Sans;}.cls-10{letter-spacing:-0.1em;}.cls-11{letter-spacing:-0.01em;}.cls-12{letter-spacing:-0.02em;}.cls-13{letter-spacing:-0.03em;}.cls-14{letter-spacing:0.02em;}.cls-15{fill:url(#linear-gradient-9);}.cls-16{letter-spacing:-0.02em;}.cls-17{fill:url(#linear-gradient-10);}.cls-18{fill:none;}.cls-20{font-size:20px;}.cls-21{font-family:Menlo-Regular, Menlo;}</style><linearGradient id="linear-gradient" x1="45" y1="319.5" x2="189" y2="319.5" gradientUnits="userSpaceOnUse"><stop offset="0" stop-color="#f7941d"/><stop offset="1" stop-color="#8dc63f"/></linearGradient><linearGradient id="linear-gradient-2" x1="97.72" y1="341.95" x2="136.28" y2="198.05" gradientUnits="userSpaceOnUse"><stop offset="0" stop-color="#d7df23"/><stop offset="1" stop-color="#fbb040"/></linearGradient><linearGradient id="linear-gradient-3" x1="97.73" y1="476.9" x2="136.27" y2="333.1" xlink:href="#linear-gradient-2"/><linearGradient id="linear-gradient-4" x1="102.23" y1="577.13" x2="131.77" y2="466.87" xlink:href="#linear-gradient-2"/><linearGradient id="linear-gradient-5" x1="97.73" y1="206.93" x2="136.27" y2="63.07" xlink:href="#linear-gradient-2"/><linearGradient id="linear-gradient-6" x1="108.45" y1="198.39" x2="125.55" y2="134.61" xlink:href="#linear-gradient-2"/><linearGradient id="linear-gradient-7" x1="108.45" y1="135.39" x2="125.55" y2="71.61" xlink:href="#linear-gradient-2"/><linearGradient id="linear-gradient-8" x1="270" y1="495" x2="360" y2="495" gradientUnits="userSpaceOnUse"><stop offset="0" stop-color="#fbb040"/><stop offset="1" stop-color="#d7df23"/></linearGradient><linearGradient id="linear-gradient-9" x1="252" y1="180" x2="369" y2="180" xlink:href="#linear-gradient-8"/><linearGradient id="linear-gradient-10" x1="252" y1="315" x2="369" y2="315" xlink:href="#linear-gradient-8"/></defs><title>cours05-thread</title><g id="rectangles"><rect class="cls-1" x="45" y="63" width="144" height="513"/><path class="cls-2" d="M180,321.8c0,6.19-5.37,11.2-12,11.2H66c-6.63,0-12-5-12-11.2V218.2C54,212,59.37,207,66,207H168c6.63,0,12,5,12,11.2Z"/><path class="cls-3" d="M180,455.08c0,7.13-5.37,12.92-12,12.92H66c-6.63,0-12-5.79-12-12.92V354.92C54,347.79,59.37,342,66,342H168c6.63,0,12,5.79,12,12.92Z"/><rect class="cls-4" x="54" y="477" width="126" height="90" rx="12"/><rect class="cls-5" x="54" y="72" width="126" height="126" rx="12"/><rect class="cls-6" x="63" y="144" width="108" height="45" rx="12"/><rect class="cls-7" x="63" y="81" width="108" height="45" rx="12"/></g><g id="bloc_thread" data-name="bloc thread"><rect class="cls-8" x="270" y="414" width="90" height="162"/><text class="cls-9" transform="translate(279 432)">PID<tspan x="0" y="19.2">GID</tspan><tspan x="0" y="38.4">UID</tspan><tspan x="0" y="76.8">Fichiers</tspan><tspan class="cls-10" x="0" y="96">V</tspan><tspan x="8.06" y="96">e</tspan><tspan class="cls-11" x="15.73" y="96">r</tspan><tspan class="cls-12" x="21.91" y="96">r</tspan><tspan x="27.84" y="96">ous</tspan><tspan x="0" y="115.2">Soc</tspan><tspan class="cls-13" x="23.16" y="115.2">k</tspan><tspan x="30.35" y="115.2">ets</tspan><tspan x="0" y="134.4">et</tspan><tspan class="cls-14" x="12.99" y="134.4">c</tspan><tspan class="cls-10" x="20.32" y="134.4">.</tspan></text><rect class="cls-15" x="252" y="144" width="117" height="72"/><text class="cls-9" transform="translate(270 162)">pointeur pile<tspan x="0" y="19.2">pointeur exéc</tspan><tspan class="cls-16" x="0" y="38.4">r</tspan><tspan x="6.02" y="38.4">egist</tspan><tspan class="cls-16" x="35.5" y="38.4">r</tspan><tspan x="41.52" y="38.4">es</tspan></text><rect class="cls-17" x="252" y="279" width="117" height="72"/><text class="cls-9" transform="translate(270 297)">pointeur pile<tspan x="0" y="19.2">pointeur exéc</tspan><tspan class="cls-16" x="0" y="38.4">r</tspan><tspan x="6.02" y="38.4">egist</tspan><tspan class="cls-16" x="35.5" y="38.4">r</tspan><tspan x="41.52" y="38.4">es</tspan></text><polyline class="cls-18" points="261 162 243 162 243 90 170.86 90"/><polygon class="cls-19" points="172.84 87.09 162 90 172.84 92.91 172.84 87.09"/><polyline class="cls-18" points="261 180 243 180 243 252 152.86 252"/><polygon class="cls-19" points="154.84 249.09 144 252 154.84 254.91 154.84 249.09"/><polyline class="cls-18" points="261 297 225 297 225 153 170.86 153"/><polygon class="cls-19" points="172.84 150.09 162 153 172.84 155.91 172.84 150.09"/><polyline class="cls-18" points="261 315 216 315 216 270 152.86 270"/><polygon class="cls-19" points="154.84 267.09 144 270 154.84 272.9 154.84 267.09"/><text class="cls-20" transform="translate(279 135)">th<tspan class="cls-16" x="16.66" y="0">r</tspan><tspan x="24.18" y="0">ead 1</tspan></text><text class="cls-20" transform="translate(279 270)">th<tspan class="cls-16" x="16.66" y="0">r</tspan><tspan x="24.18" y="0">ead 2</tspan></text></g><g id="texte"><text class="cls-20" transform="translate(7.65 135)">pile</text><text class="cls-20" transform="translate(3.1 270)">text</text><text class="cls-20" transform="translate(2.07 405)">data</text><text class="cls-20" transform="translate(13.11 522)">tas</text></g><g id="code"><text class="cls-21" transform="translate(72 99)">f()</text><text class="cls-21" transform="translate(117 99)">var1<tspan x="0" y="19.2">var2</tspan></text><text class="cls-21" transform="translate(72 162)">g()</text><text class="cls-21" transform="translate(117 162)">var3<tspan x="0" y="19.2">var4</tspan></text><text class="cls-21" transform="translate(72 234)">main()<tspan x="0" y="19.2" xml:space="preserve">  f()</tspan><tspan x="0" y="38.4" xml:space="preserve">  g()</tspan></text><text class="cls-21" transform="translate(72 369)">int a<tspan x="0" y="19.2">char *s</tspan></text></g></svg>