<svg xmlns="http://www.w3.org/2000/svg" viewBox="0 0 329.62 579.31"><defs><style>.cls-1,.cls-5{fill:#fff;}.cls-1,.cls-10,.cls-5,.cls-7,.cls-8,.cls-9{stroke:#231f20;}.cls-1,.cls-10,.cls-12,.cls-14,.cls-5,.cls-7,.cls-8,.cls-9{stroke-miterlimit:10;}.cls-1{stroke-width:1.05px;}.cls-2{font-size:12px;}.cls-11,.cls-15,.cls-2{fill:#231f20;}.cls-15,.cls-2{font-family:GillSans, Gill Sans;}.cls-3{letter-spacing:-0.02em;}.cls-4{letter-spacing:-0.02em;}.cls-5{stroke-width:0.93px;}.cls-6{letter-spacing:-0.01em;}.cls-10,.cls-12,.cls-14,.cls-7,.cls-8,.cls-9{fill:none;}.cls-7,.cls-8{stroke-width:4.63px;}.cls-8{stroke-dasharray:5.44 5.44;}.cls-12,.cls-9{stroke-width:5px;}.cls-12,.cls-14{stroke:#0178b9;}.cls-13{fill:#0178b9;}.cls-14{stroke-width:5.22px;}.cls-15{font-size:14px;}.cls-16{letter-spacing:-0.02em;}</style></defs><title>cours03-switch</title><g id="Texte"><rect class="cls-1" x="74.81" y="101.81" width="180" height="36"/><text class="cls-2" transform="translate(88.34 123.33)">Sau<tspan class="cls-3" x="16.62" y="0">v</tspan><tspan x="21.63" y="0">ega</tspan><tspan class="cls-4" x="37.62" y="0">r</tspan><tspan x="42.19" y="0">de de l’état dans PCB1</tspan></text><rect class="cls-5" x="74.81" y="353.81" width="180" height="36"/><text class="cls-2" transform="translate(87.94 375.33)">Sau<tspan class="cls-3" x="16.62" y="0">v</tspan><tspan x="21.63" y="0">ega</tspan><tspan class="cls-4" x="37.62" y="0">r</tspan><tspan x="42.19" y="0">de de l’état dans PCB2</tspan></text><rect class="cls-5" x="74.81" y="209.81" width="180" height="36"/><text class="cls-2" transform="translate(91.8 231.33)">Chargement de l’état de PCB2</text><rect class="cls-5" x="74.81" y="461.81" width="180" height="36"/><text class="cls-2" transform="translate(92.2 483.33)">Chargement de l’état de PCB1</text><text class="cls-2" transform="translate(96.43 326.81)">Inte<tspan class="cls-6" x="18.74" y="0">r</tspan><tspan x="23.38" y="0">ruption</tspan><tspan x="-16.33" y="14.4">(</tspan><tspan class="cls-6" x="-12.45" y="14.4">a</tspan><tspan x="-7.45" y="14.4">ppel système)</tspan></text><text class="cls-2" transform="translate(173.81 74.81)">Inte<tspan class="cls-6" x="18.74" y="0">r</tspan><tspan x="23.38" y="0">ruption</tspan><tspan x="0" y="14.4">(</tspan><tspan class="cls-6" x="3.88" y="14.4">a</tspan><tspan x="8.88" y="14.4">ppel système)</tspan></text><line class="cls-7" x1="164.81" y1="146.81" x2="164.81" y2="149.31"/><line class="cls-8" x1="164.81" y1="154.75" x2="164.81" y2="195.59"/><line class="cls-7" x1="164.81" y1="198.31" x2="164.81" y2="200.81"/><line class="cls-7" x1="164.81" y1="398.81" x2="164.81" y2="401.31"/><line class="cls-8" x1="164.81" y1="406.75" x2="164.81" y2="447.59"/><line class="cls-7" x1="164.81" y1="450.31" x2="164.81" y2="452.81"/><line class="cls-9" x1="38.81" y1="101.81" x2="38.81" y2="497.81"/><line class="cls-9" x1="290.81" y1="20.81" x2="290.81" y2="245.81"/><line class="cls-9" x1="290.81" y1="353.81" x2="290.81" y2="578.81"/><polyline class="cls-10" points="164.81 506.81 164.81 533.81 92.81 533.81 54.73 503.34"/><polygon class="cls-11" points="58.09 502.31 47.81 497.81 54.46 506.85 58.09 502.31"/><polyline class="cls-10" points="47.81 101.81 92.81 65.81 164.81 65.81 164.81 83.95"/><polygon class="cls-11" points="161.9 81.97 164.81 92.81 167.71 81.97 161.9 81.97"/><polyline class="cls-10" points="164.81 254.81 164.81 281.81 236.81 281.81 274.89 251.34"/><polygon class="cls-11" points="275.16 254.85 281.81 245.81 271.53 250.31 275.16 254.85"/><polyline class="cls-10" points="281.81 353.81 236.81 317.81 164.81 317.81 164.81 335.95"/><polygon class="cls-11" points="161.9 333.97 164.81 344.81 167.71 333.97 161.9 333.97"/><line class="cls-12" x1="38.81" y1="20.81" x2="38.81" y2="70.66"/><polygon class="cls-13" points="31.55 65.71 38.81 92.81 46.07 65.71 31.55 65.71"/><line class="cls-12" x1="38.81" y1="506.81" x2="38.81" y2="556.66"/><polygon class="cls-13" points="31.55 551.71 38.81 578.81 46.07 551.71 31.55 551.71"/><line class="cls-14" x1="290.81" y1="254.81" x2="290.81" y2="321.68"/><polygon class="cls-13" points="283.22 316.5 290.81 344.81 298.39 316.5 283.22 316.5"/><text class="cls-15" transform="translate(1.77 11.81)">P<tspan class="cls-16" x="7.14" y="0">r</tspan><tspan x="12.33" y="0">ocessus P1</tspan></text><text class="cls-15" transform="translate(253.77 11.81)">P<tspan class="cls-16" x="7.14" y="0">r</tspan><tspan x="12.33" y="0">ocessus P2</tspan></text></g><g id="legende"><polyline class="cls-10" points="29.81 101.81 20.81 101.81 20.81 497.81 29.81 497.81"/><polyline class="cls-10" points="299.81 20.81 308.81 20.81 308.81 245.81 299.81 245.81"/><polyline class="cls-10" points="299.81 353.81 308.81 353.81 308.81 578.81 299.81 578.81"/></g><g id="texte_vertical" data-name="texte vertical"><text class="cls-15" transform="translate(11.81 316.56) rotate(-90)">i<tspan x="3.08" y="0">n</tspan><tspan x="10.1" y="0">a</tspan><tspan x="16.07" y="0">c</tspan><tspan x="22.21" y="0">t</tspan><tspan x="26.85" y="0">i</tspan><tspan x="29.92" y="0">f</tspan></text><text class="cls-15" transform="translate(317.81 116.59) rotate(90)">i<tspan x="3.07" y="0">n</tspan><tspan x="10.06" y="0">a</tspan><tspan x="16.04" y="0">c</tspan><tspan x="22.19" y="0">t</tspan><tspan x="26.84" y="0">i</tspan><tspan x="29.92" y="0">f</tspan></text><text class="cls-15" transform="translate(317.81 449.59) rotate(90)">i<tspan x="3.07" y="0">n</tspan><tspan x="10.06" y="0">a</tspan><tspan x="16.04" y="0">c</tspan><tspan x="22.19" y="0">t</tspan><tspan x="26.84" y="0">i</tspan><tspan x="29.92" y="0">f</tspan></text></g></svg>