<svg xmlns="http://www.w3.org/2000/svg" viewBox="0 0 319.5 396.71"><defs><style>.cls-1{fill:#f3bcbc;}.cls-1,.cls-10,.cls-2,.cls-3{stroke:#231f20;stroke-miterlimit:10;}.cls-1,.cls-2,.cls-3{stroke-width:0.71px;}.cls-2{fill:#bfe1c5;}.cls-3{fill:#bbe6f6;}.cls-4{font-size:14px;font-family:GillSans, Gill Sans;}.cls-11,.cls-4{fill:#231f20;}.cls-5{letter-spacing:-0.02em;}.cls-6{letter-spacing:-0.15em;}.cls-7{letter-spacing:0.02em;}.cls-8{letter-spacing:-0.01em;}.cls-9{letter-spacing:-0.02em;}.cls-10{fill:none;}</style></defs><title>cours03-cycle</title><g id="Rectangles"><rect class="cls-1" x="0.35" y="180.35" width="108" height="36" rx="12"/><rect class="cls-2" x="162.35" y="108.35" width="108" height="36" rx="12"/><rect class="cls-3" x="162.35" y="0.35" width="108" height="36" rx="12"/><rect class="cls-2" x="162.35" y="252.35" width="108" height="36" rx="12"/><rect class="cls-1" x="162.35" y="360.35" width="108" height="36" rx="12"/></g><g id="Labels"><text class="cls-4" transform="translate(190.76 23.64)">Nou<tspan class="cls-5" x="25.66" y="0">v</tspan><tspan x="31.51" y="0">eau</tspan></text><text class="cls-4" transform="translate(204.33 131.64)">Prêt</text><text class="cls-4" transform="translate(188.21 275.64)">Exécution</text><text class="cls-4" transform="translate(32.49 203.64)">Attente</text><text class="cls-4" transform="translate(193.27 383.64)"><tspan class="cls-6">T</tspan><tspan x="6.36" y="0">erminé</tspan></text><text class="cls-4" transform="translate(67.74 288.35)">attente I/O<tspan x="-8.9" y="16.8">ou événement</tspan></text><text class="cls-4" transform="translate(55.99 99.35)">complétion I/O<tspan x="2.85" y="16.8">ou événement</tspan></text><text class="cls-4" transform="translate(226.67 324.35)">so<tspan class="cls-7" x="13.11" y="0">r</tspan><tspan x="18.94" y="0">tie</tspan></text><text class="cls-4" transform="translate(127.93 198.35)">inte<tspan class="cls-8" x="21.44" y="0">r</tspan><tspan x="26.84" y="0">ruption</tspan></text><text class="cls-4" transform="translate(239.22 198.35)">o<tspan class="cls-9" x="7.72" y="0">r</tspan><tspan x="13.06" y="0">donnanceur</tspan></text></g><g id="Arrows"><line class="cls-10" x1="216.35" y1="36.35" x2="216.35" y2="99.49"/><polygon class="cls-11" points="213.45 97.51 216.35 108.35 219.26 97.51 213.45 97.51"/><line class="cls-10" x1="225.35" y1="144.35" x2="225.35" y2="243.49"/><polygon class="cls-11" points="222.45 241.51 225.35 252.35 228.26 241.51 222.45 241.51"/><line class="cls-10" x1="207.35" y1="252.35" x2="207.35" y2="153.21"/><polygon class="cls-11" points="210.26 155.19 207.35 144.35 204.45 155.19 210.26 155.19"/><line class="cls-10" x1="216.35" y1="288.35" x2="216.35" y2="351.49"/><polygon class="cls-11" points="213.45 349.51 216.35 360.35 219.26 349.51 213.45 349.51"/><polyline class="cls-10" points="162.35 270.35 54.35 270.35 54.35 225.21"/><polygon class="cls-11" points="57.26 227.19 54.35 216.35 51.45 227.19 57.26 227.19"/><polyline class="cls-10" points="54.35 180.35 54.35 126.35 153.49 126.35"/><polygon class="cls-11" points="151.51 129.26 162.35 126.35 151.51 123.45 151.51 129.26"/></g></svg>