<svg xmlns="http://www.w3.org/2000/svg" viewBox="0 0 253.14 471.23"><defs><style>.cls-1{fill:#fecb93;}.cls-2{fill:#fbad30;}.cls-3{fill:#f37222;}.cls-4,.cls-7{fill:none;stroke:#231f20;stroke-miterlimit:10;}.cls-5{font-size:14px;font-family:GillSans, Gill Sans;}.cls-5,.cls-8{fill:#231f20;}.cls-6{letter-spacing:-0.01em;}.cls-7{stroke-width:3px;}.cls-9{fill:#848689;opacity:0.4;}.cls-10{letter-spacing:-0.06em;}.cls-11{letter-spacing:-0.02em;}.cls-12{letter-spacing:0em;}</style></defs><title>cours03-pile</title><g id="Séparations"><rect class="cls-1" x="49.42" y="306" width="144" height="126"/><rect class="cls-2" x="49.42" y="144" width="144" height="162"/><rect class="cls-3" x="49.42" y="45" width="144" height="99"/><polyline class="cls-4" points="40.42 45 31.42 54 31.42 135 40.42 144"/><polyline class="cls-4" points="40.42 144 31.42 153 31.42 297 40.42 306"/><polyline class="cls-4" points="40.42 306 31.42 315 31.42 423 40.42 432"/><text class="cls-5" transform="translate(0 369)">main</text><text class="cls-5" transform="translate(20.67 234)">f</text><text class="cls-5" transform="translate(19.43 99)">g</text><line class="cls-4" x1="49.42" y1="270" x2="193.42" y2="270"/><line class="cls-4" x1="49.42" y1="306" x2="193.42" y2="306"/><line class="cls-4" x1="49.42" y1="45" x2="193.42" y2="45"/><line class="cls-4" x1="49.42" y1="243" x2="193.42" y2="243"/><line class="cls-4" x1="49.42" y1="144" x2="193.42" y2="144"/><line class="cls-4" x1="49.42" y1="108" x2="193.42" y2="108"/><line class="cls-4" x1="49.42" y1="81" x2="193.42" y2="81"/><text class="cls-5" transform="translate(88.07 468)"><tspan class="cls-6">f</tspan><tspan x="3.36" y="0">ond de pile</tspan></text><text class="cls-5" transform="translate(88.37 36)">haut de pile</text><line class="cls-7" x1="175.42" y1="36" x2="175.42" y2="13.29"/><polygon class="cls-8" points="179.78 16.26 175.42 0 171.06 16.26 179.78 16.26"/><line class="cls-7" x1="229.42" y1="45" x2="215.71" y2="45"/><polygon class="cls-8" points="218.68 40.64 202.42 45 218.68 49.36 218.68 40.64"/><line class="cls-7" x1="229.42" y1="108" x2="215.71" y2="108"/><polygon class="cls-8" points="218.68 103.64 202.42 108 218.68 112.36 218.68 103.64"/><text class="cls-5" transform="translate(211.42 18)">stack<tspan x="0" y="16.8">pointer</tspan></text><text class="cls-5" transform="translate(211.42 126)">frame<tspan x="0" y="16.8">pointer</tspan></text></g><g id="Layer_4" data-name="Layer 4"><rect class="cls-9" x="49.42" y="243" width="144" height="27"/><rect class="cls-9" x="49.42" y="81" width="144" height="27"/></g><g id="Données"><text class="cls-5" transform="translate(75.27 198)"><tspan class="cls-10">V</tspan><tspan x="7.62" y="0">ariables locales</tspan></text><text class="cls-5" transform="translate(75.27 369)"><tspan class="cls-10">V</tspan><tspan x="7.62" y="0">ariables locales</tspan></text><text class="cls-5" transform="translate(75.27 72)"><tspan class="cls-10">V</tspan><tspan x="7.62" y="0">ariables locales</tspan></text><text class="cls-5" transform="translate(69.2 99)">Ad<tspan class="cls-11" x="16.47" y="0">r</tspan><tspan x="21.74" y="0">esse de </tspan><tspan class="cls-11" x="67.55" y="0">r</tspan><tspan class="cls-12" x="72.81" y="0">etour</tspan></text><text class="cls-5" transform="translate(69.2 261)">Ad<tspan class="cls-11" x="16.47" y="0">r</tspan><tspan x="21.74" y="0">esse de </tspan><tspan class="cls-11" x="67.55" y="0">r</tspan><tspan class="cls-12" x="72.81" y="0">etour</tspan></text><text class="cls-5" transform="translate(89.34 297)">Paramèt<tspan class="cls-11" x="46.79" y="0">r</tspan><tspan x="52.06" y="0">es</tspan></text><text class="cls-5" transform="translate(89.34 135)">Paramèt<tspan class="cls-11" x="46.79" y="0">r</tspan><tspan x="52.06" y="0">es</tspan></text></g><g id="Cadre"><polyline class="cls-7" points="49.42 0 49.42 432 193.42 432 193.42 0"/><line class="cls-7" x1="58.42" y1="450" x2="76.42" y2="432"/><line class="cls-7" x1="49.42" y1="450" x2="67.42" y2="432"/><line class="cls-7" x1="49.42" y1="441" x2="58.42" y2="432"/><line class="cls-7" x1="67.42" y1="450" x2="85.42" y2="432"/><line class="cls-7" x1="76.42" y1="450" x2="94.42" y2="432"/><line class="cls-7" x1="85.42" y1="450" x2="103.42" y2="432"/><line class="cls-7" x1="94.42" y1="450" x2="112.42" y2="432"/><line class="cls-7" x1="103.42" y1="450" x2="121.42" y2="432"/><line class="cls-7" x1="112.42" y1="450" x2="130.42" y2="432"/><line class="cls-7" x1="121.42" y1="450" x2="139.42" y2="432"/><line class="cls-7" x1="130.42" y1="450" x2="148.42" y2="432"/><line class="cls-7" x1="139.42" y1="450" x2="157.42" y2="432"/><line class="cls-7" x1="148.42" y1="450" x2="166.42" y2="432"/><line class="cls-7" x1="157.42" y1="450" x2="175.42" y2="432"/><line class="cls-7" x1="166.42" y1="450" x2="184.42" y2="432"/><line class="cls-7" x1="175.42" y1="450" x2="193.42" y2="432"/><line class="cls-7" x1="184.42" y1="450" x2="193.42" y2="441"/></g></svg>