<svg xmlns="http://www.w3.org/2000/svg" xmlns:xlink="http://www.w3.org/1999/xlink" viewBox="0 0 334 603.5"><defs><style>.cls-1{fill:none;stroke-width:2px;}.cls-1,.cls-3,.cls-4,.cls-5,.cls-6,.cls-7{stroke:#231f20;stroke-miterlimit:10;}.cls-2,.cls-8{fill:#231f20;}.cls-3{fill:url(#linear-gradient);}.cls-4{fill:url(#linear-gradient-2);}.cls-5{fill:url(#linear-gradient-3);}.cls-6{fill:url(#linear-gradient-4);}.cls-7{fill:url(#linear-gradient-5);}.cls-8{font-size:18px;font-family:Menlo-Regular, Menlo;}</style><linearGradient id="linear-gradient" x1="63.5" y1="99.5" x2="63.5" y2="0.5" gradientUnits="userSpaceOnUse"><stop offset="0" stop-color="#8bd5eb"/><stop offset="1" stop-color="#5496d0"/></linearGradient><linearGradient id="linear-gradient-2" y1="261.5" y2="162.5" xlink:href="#linear-gradient"/><linearGradient id="linear-gradient-3" y1="558.5" y2="459.5" xlink:href="#linear-gradient"/><linearGradient id="linear-gradient-4" x1="270.5" y1="261.5" x2="270.5" y2="162.5" gradientUnits="userSpaceOnUse"><stop offset="0" stop-color="#d1a6cd"/><stop offset="1" stop-color="#9c5ca5"/></linearGradient><linearGradient id="linear-gradient-5" y1="423.5" y2="324.5" xlink:href="#linear-gradient-4"/></defs><title>cours04-exec</title><g id="Layer_1" data-name="Layer 1"><line class="cls-1" x1="270.5" y1="261.5" x2="270.5" y2="311.21"/><polygon class="cls-2" points="266.14 308.24 270.5 324.5 274.86 308.24 266.14 308.24"/><line class="cls-1" x1="63.5" y1="261.5" x2="63.5" y2="446.21"/><polygon class="cls-2" points="59.14 443.24 63.5 459.5 67.86 443.24 59.14 443.24"/><polyline class="cls-1" points="270.5 423.5 270.5 513.5 139.79 513.5"/><polygon class="cls-2" points="142.76 509.14 126.5 513.5 142.76 517.86 142.76 509.14"/><line class="cls-1" x1="63.5" y1="558.5" x2="63.5" y2="590.21"/><polygon class="cls-2" points="59.14 587.24 63.5 603.5 67.86 587.24 59.14 587.24"/><polyline class="cls-1" points="63.5 99.5 63.5 135.5 270.5 135.5 270.5 149.21"/><polygon class="cls-2" points="266.14 146.24 270.5 162.5 274.86 146.24 266.14 146.24"/><line class="cls-1" x1="63.5" y1="135.5" x2="63.5" y2="149.21"/><polygon class="cls-2" points="59.14 146.24 63.5 162.5 67.86 146.24 59.14 146.24"/><rect class="cls-3" x="0.5" y="0.5" width="126" height="99" rx="12"/><rect class="cls-4" x="0.5" y="162.5" width="126" height="99" rx="12"/><rect class="cls-5" x="0.5" y="459.5" width="126" height="99" rx="12"/><rect class="cls-6" x="207.5" y="162.5" width="126" height="99" rx="12"/><rect class="cls-7" x="207.5" y="324.5" width="126" height="99" rx="12"/></g><g id="Layer_2" data-name="Layer 2"><text class="cls-8" transform="translate(9.5 32.81)">pid = 387<tspan x="0" y="21.6">ppid = 386</tspan><tspan x="0" y="43.2">bash</tspan></text><text class="cls-8" transform="translate(9.5 194.81)">pid = 387<tspan x="0" y="21.6">ppid = 386</tspan><tspan x="0" y="43.2">bash</tspan></text><text class="cls-8" transform="translate(9.5 491.81)">pid = 387<tspan x="0" y="21.6">ppid = 386</tspan><tspan x="0" y="43.2">bash</tspan></text><text class="cls-8" transform="translate(216.5 194.81)">pid = 1050<tspan x="0" y="21.6">ppid = 387</tspan><tspan x="0" y="43.2">bash</tspan></text><text class="cls-8" transform="translate(216.5 356.81)">pid = 1050<tspan x="0" y="21.6">ppid = 387</tspan><tspan x="0" y="43.2">ls</tspan></text><text class="cls-8" transform="translate(72.5 126.5)">fork</text><text class="cls-8" transform="translate(11.15 360.5)">wait</text><text class="cls-8" transform="translate(11.15 153.5)">1050</text><text class="cls-8" transform="translate(279.5 153.5)">0</text><text class="cls-8" transform="translate(279.5 297.5)">exec</text><text class="cls-8" transform="translate(279.5 477.5)">exit</text></g></svg>